<?xml version="1.0" encoding="utf-8"?>
<!-- Generator: Adobe Illustrator 25.2.1, SVG Export Plug-In . SVG Version: 6.00 Build 0)  -->
<svg version="1.1" id="Camada_1" xmlns="http://www.w3.org/2000/svg" xmlns:xlink="http://www.w3.org/1999/xlink" x="0px" y="0px"
	 viewBox="0 0 595.3 841.9" style="enable-background:new 0 0 595.3 841.9;" xml:space="preserve">
<style type="text/css">
	.st0{fill:#230876;}
	.st1{fill:#F8ECDF;}
	.st2{fill:#4674DA;}
	.st3{fill:#DA354D;}
	.st4{fill:#F6EADE;}
	.st5{fill:#D5334E;}
	.st6{fill:#D8364F;}
	.st7{fill:#240875;}
	.st8{fill:#230775;}
	.st9{fill:#220775;}
	.st10{fill:#1E0273;}
	.st11{fill:#200474;}
	.st12{fill:#1C0072;}
	.st13{fill:#240976;}
	.st14{fill:#200574;}
	.st15{fill:#1F0473;}
	.st16{fill:#1E0272;}
	.st17{fill:#F7EBDF;}
	.st18{fill:#F2E5DC;}
</style>
<g>
	<g>
		<path class="st0" d="M445.1,363.8c2.5-6.9,5-13.8,7.5-20.8c12.9-35.6,25.8-71.2,38.7-106.8c1-2.8,2.6-3.6,5.9-3.3
			c7.6,0.7,14.8,3,21.7,6.1c4.1,1.9,8.1,4.1,11.9,6.5c2.9,1.8,2.9,3,1.8,6.2c-25.2,69.7-50.4,139.3-75.6,209c-0.7,2-0.7,4.3-0.5,6.4
			c1.1,12.2,2.6,24.3,3.3,36.5c1.1,19.2,2.2,38.5,2.2,57.7c0.1,14.7-1.1,29.5-2.4,44.2c-1.4,15.8-4.3,31.4-7.8,46.9
			c-0.4,1.8-1.3,2.4-3.2,2.4c-114.5,0-229,0-343.5,0c-2.8,0-3.3-0.6-2.7-3.3c3.5-15.4,6.1-30.9,7.8-46.7c2.3-21.7,2.9-43.5,2.2-65.3
			c-0.5-15.8-1.5-31.6-2.9-47.4c-1.4-16-3.4-31.9-5.2-47.9c-1.6-14-3.4-28-5-42c-1.6-13.9-3.4-27.8-4.7-41.8
			c-1.3-14-2.5-28.1-3-42.2c-0.6-16.1-1-32.2-0.7-48.2c0.3-12.8,1.2-25.6,2.8-38.3c1.8-14,4.8-27.9,7.2-41.8
			c0.3-1.6,1.2-2.4,2.9-2.3c0.6,0,1.1,0,1.7,0c113.5,0,227,0,340.5,0c0.7,0,1.5,0,2.2,0c1.8,0.1,2.5,1.1,2.1,2.8
			c-1.4,6.4-2.9,12.8-4,19.3c-1.5,8.7-2.6,17.4-3.7,26.1c-2.1,16.4-2.7,32.9-2.6,49.4c0,12,0.5,24,1,36c0.3,8.1,1,16.1,1.6,24.2
			c0.5,6.1,1.1,12.1,1.7,18.2C444.6,363.7,444.9,363.8,445.1,363.8z M446.6,191.3c-1.2,0-2.2,0-3.2,0c-111.9,0-223.7,0-335.6,0
			c-0.7,0-1.4-0.2-1.9,0c-0.7,0.3-1.7,0.9-1.8,1.5c-2.2,11.9-4.7,23.8-6.4,35.7c-1.4,9.8-2.2,19.8-2.6,29.7
			c-0.6,13.8-1,27.6-0.7,41.4c0.3,13.9,1.3,27.7,2.3,41.6c0.7,9.8,1.6,19.5,2.6,29.2c1,9.4,2.2,18.8,3.3,28.2
			c1.3,11.2,2.7,22.3,4,33.5c1.4,11.9,3,23.8,4.2,35.7c1.2,11,2.2,22.1,3,33.1c0.9,12.4,1.9,24.9,2.2,37.4
			c0.6,22.5,0.5,45.1-2.3,67.5c-1.4,10.9-3.1,21.7-4.8,32.6c-0.7,4.4-1.7,8.7-2.6,13.3c1,0,1.7,0,2.4,0c112.5,0,225.1,0,337.6,0
			c1.8,0,2.5-0.5,2.8-2.3c1.5-8.2,3.3-16.3,4.5-24.4c1.5-10.2,2.8-20.5,3.7-30.8c0.8-8.5,1.2-17.1,1.2-25.7
			c-0.1-16.2-0.4-32.5-1-48.7c-0.3-9.9-1.3-19.7-2.1-29.5c-0.5-6.3-1.3-12.6-2-19.5c-0.5,1.1-0.7,1.6-0.9,2.1
			c-14.2,39.4-28.5,78.7-42.8,118c-0.8,2.1-2,4.1-3.5,5.7c-10.7,11.5-21.4,22.9-32.2,34.3c-0.7,0.7-1.7,1-2.6,1.5
			c-0.4-0.8-1.2-1.6-1.3-2.4c-1-15.1-1.9-30.1-2.9-45.2c-0.2-3.6,0-7.1,1.5-10.5c1-2.2,1.7-4.5,2.6-7.1c-1.2,0-2.1,0-3,0
			c-40,0-80.1,0-120.1,0c-1.3,0-3.6,1-3.7-1.5c0-2.5,2.3-1.8,3.8-1.8c40.5,0,81.1,0,121.6,0c2,0,2.9-0.6,3.6-2.5
			c22.5-62.2,45-124.5,67.5-186.7c0.5-1.4,0.7-3,0.6-4.5c-0.9-10.8-2.2-21.6-2.9-32.4c-1-15.3-1.8-30.6-2.1-46
			c-0.4-17,0.1-34,2.1-50.9c1.3-10.7,2.8-21.3,4.4-31.9C444.1,203.2,445.4,197.4,446.6,191.3z M476.4,287.7c-0.4,1-0.8,1.9-1.2,2.8
			c-14.8,41-29.7,82.1-44.5,123.1c-19.7,54.5-39.4,109-59.3,163.5c-0.8,2.3-0.4,3.4,1.5,4.5c9.5,5.7,19.6,9.5,30.6,10.8
			c1.6,0.2,2.3-0.7,2.8-2.1c6.3-17.5,12.6-35.1,19-52.6c16.8-46.4,33.6-92.8,50.4-139.2c9.5-26.3,19.1-52.7,28.6-79
			c2.3-6.3,4.5-12.7,6.9-19.3C498.7,298.9,487.2,294.6,476.4,287.7z M493.8,239.8c-0.2,0.2-0.4,0.3-0.4,0.4
			c-5.1,14.1-10.3,28.3-15.3,42.4c-0.2,0.6,0.3,2,0.8,2.3c3.8,2.2,7.6,4.4,11.6,6.2c6.3,2.7,12.7,4.9,19.7,5.4
			c1.8,0.1,2.7-0.3,3.4-2.2c2.2-6.5,4.7-13,7.1-19.5c2.7-7.4,5.3-14.8,8.1-22.4C516,250.8,504.5,246.6,493.8,239.8z M370.9,585.2
			c0.6,9.5,1.2,19,1.7,28.5c0.3,4.9-0.3,3.9,4.1,5.5c0.2,0.1,0.4,0.2,0.7,0.3c1.4,0.7,2.4,0.3,3.5-0.9c6.5-7,13.1-13.9,19.6-20.9
			c0.5-0.5,0.9-1.2,1.2-1.5c-5.4-1.6-10.7-2.8-15.7-4.7C380.9,589.9,376,587.4,370.9,585.2z M529,248.6c-9.9-7-21-10.7-33-12
			C506,243.6,517,247.5,529,248.6z"/>
		<path class="st1" d="M446.6,191.3c-1.2,6.1-2.5,11.8-3.4,17.7c-1.6,10.6-3.1,21.2-4.4,31.9c-2,16.9-2.5,33.9-2.1,50.9
			c0.3,15.3,1.2,30.7,2.1,46c0.7,10.8,2,21.6,2.9,32.4c0.1,1.5-0.1,3.1-0.6,4.5c-22.5,62.2-45,124.5-67.5,186.7
			c-0.7,1.9-1.6,2.5-3.6,2.5c-40.5-0.1-81.1-0.1-121.6,0c-1.5,0-3.8-0.7-3.8,1.8c0,2.5,2.3,1.5,3.7,1.5c40,0,80.1,0,120.1,0
			c0.9,0,1.8,0,3,0c-0.9,2.5-1.6,4.9-2.6,7.1c-1.5,3.4-1.7,6.9-1.5,10.5c1,15.1,1.9,30.1,2.9,45.2c0.1,0.8,0.8,1.6,1.3,2.4
			c0.9-0.5,1.9-0.8,2.6-1.5c10.8-11.4,21.6-22.8,32.2-34.3c1.5-1.6,2.7-3.7,3.5-5.7c14.3-39.3,28.5-78.7,42.8-118
			c0.2-0.5,0.4-1,0.9-2.1c0.7,6.9,1.5,13.2,2,19.5c0.8,9.8,1.7,19.7,2.1,29.5c0.6,16.2,0.9,32.5,1,48.7c0,8.6-0.4,17.2-1.2,25.7
			c-0.9,10.3-2.2,20.6-3.7,30.8c-1.2,8.2-3.1,16.3-4.5,24.4c-0.3,1.8-1,2.3-2.8,2.3c-112.5,0-225.1,0-337.6,0c-0.7,0-1.5,0-2.4,0
			c0.9-4.6,1.9-8.9,2.6-13.3c1.7-10.9,3.4-21.7,4.8-32.6c2.8-22.4,2.9-45,2.3-67.5c-0.3-12.5-1.3-24.9-2.2-37.4
			c-0.8-11.1-1.9-22.1-3-33.1c-1.3-11.9-2.8-23.8-4.2-35.7c-1.3-11.2-2.7-22.3-4-33.5c-1.1-9.4-2.3-18.8-3.3-28.2
			c-1-9.7-1.9-19.5-2.6-29.2c-0.9-13.8-2-27.7-2.3-41.6c-0.3-13.8,0.1-27.6,0.7-41.4c0.4-9.9,1.2-19.9,2.6-29.7
			c1.7-12,4.1-23.8,6.4-35.7c0.1-0.6,1.1-1.2,1.8-1.5c0.6-0.2,1.3,0,1.9,0c111.9,0,223.7,0,335.6,0
			C444.4,191.3,445.4,191.3,446.6,191.3z M158.3,294.3c-0.1-0.1-0.3-0.1-0.4-0.2c-3-2-5.6-1.9-7.4,0.3c-1.8,2.3-1.4,5.2,1.2,7.5
			c2.3,2,4.8,3.9,7.2,5.9c0.3,6.1,0.7,12.2,0.9,18.3c0.1,2,1,2.5,2.7,2.5c13.9,0,27.7,0,41.6,0c1.9,0,2.6-0.7,2.5-2.7
			c-0.5-10-0.8-20-1.2-30c5.8-6.6,11.6-13.1,17.2-19.7c0.9-1.1,1.5-2.9,1.6-4.4c0.1-2-1.4-3.5-3.3-4.1c-2-0.6-3.9,0-5.3,1.6
			c-3.8,4.2-7.5,8.4-11.3,12.6c-14.6,0-29.2-0.1-43.7-0.1c-1.6,0-2.2,0.8-2.1,2.3C158.4,287.5,158.3,290.9,158.3,294.3z
			 M267.2,237.1c35.1,0,70.3,0,105.4,0c0.7,0,1.4,0.2,1.9,0c0.9-0.4,1.6-1.1,2.4-1.6c-0.8-0.6-1.6-1.3-2.4-1.9c-0.3-0.2-0.8,0-1.2,0
			c-70.7,0-141.4,0-212.1,0c-0.7,0-1.5-0.1-2.2,0.2c-0.6,0.2-1.2,0.9-1.3,1.5c0,0.5,0.5,1.4,1.1,1.6c0.8,0.3,1.7,0.3,2.6,0.3
			C196.8,237.1,232,237.1,267.2,237.1z M203.9,509.4c6.9,0,13.9,0,20.8,0c1.7,0,2.7-0.5,2.6-2.3c-0.3-3.5-0.6-7-0.9-10.5
			c-1.1-10.4-2.3-20.7-3.3-31.1c-0.2-2.1-1.1-3-3.2-3c-13.6,0.1-27.1,0-40.7,0c-2.9,0-3.4,0.7-3.1,3.5c1.5,13.5,2.9,27,4.3,40.6
			c0.2,2.2,1,2.7,3,2.7C190.2,509.3,197.1,509.4,203.9,509.4z M204,600c6.8,0,13.6,0,20.3,0c1.7,0,3.1-0.2,3.2-2.4
			c0.6-13.8,1.3-27.5,1.9-41.3c0.1-3-0.3-3.3-3.2-3.3c-13.4,0-26.8,0-40.2,0c-3.3,0-3.5,0.3-3.6,3.6c-0.5,13.3-1,26.6-1.6,39.9
			c-0.1,2.9,0.3,3.5,3.2,3.5C190.6,600,197.3,600,204,600z M187.7,372.1c-6.8,0-13.6,0-20.3,0c-2.9,0-3.4,0.7-3,3.6
			c0.7,4.7,1.2,9.4,1.8,14c1.2,9,2.3,18.1,3.5,27.1c0.2,1.5,1,2.3,2.6,2.3c14,0,27.9,0,41.9,0c1.9,0,2.7-0.9,2.4-2.8
			c-0.5-4-1.1-8.1-1.6-12.1c-1.3-9.7-2.6-19.3-3.7-29c-0.3-2.2-1-3.2-3.3-3.1C201.3,372.2,194.5,372.1,187.7,372.1z M314.4,473.6
			c-24,0-48,0-72,0c-1.3,0-3-0.3-3,1.6c0,1.9,1.7,1.9,3.1,1.8c0.2,0,0.3,0,0.5,0c47.6,0,95.2,0,142.9,0c0.7,0,1.6,0.2,2.2-0.2
			c0.6-0.3,1.3-1.2,1.2-1.8c0-0.5-0.9-1.1-1.6-1.4c-0.6-0.2-1.3-0.1-1.9-0.1C361.9,473.6,338.1,473.6,314.4,473.6z M295.4,296.1
			c23.9,0,47.7,0,71.6,0c1.4,0,3.4,0.5,3.4-1.7c0-2.1-2-1.6-3.4-1.7c-0.1,0-0.2,0-0.2,0c-47.5,0-95.1,0-142.6,0
			c-0.7,0-1.4-0.2-1.9,0.1c-0.7,0.4-1.2,1.1-1.8,1.7c0.6,0.6,1.1,1.3,1.8,1.6c0.5,0.3,1.3,0.1,1.9,0.1
			C247.9,296.1,271.6,296.1,295.4,296.1z M265.7,248c-23.5,0-47,0-70.6,0c-0.7,0-1.4-0.2-1.9,0.1c-0.7,0.3-1.3,1-1.9,1.5
			c0.6,0.6,1.2,1.3,1.9,1.8c0.3,0.2,1,0,1.4,0c47.4,0,94.7,0,142.1,0c0.6,0,1.3,0.2,1.7-0.1c0.7-0.4,1.2-1.1,1.8-1.7
			c-0.6-0.6-1.1-1.3-1.8-1.6c-0.5-0.3-1.3-0.1-1.9-0.1C312.9,248,289.3,248,265.7,248z M302.8,386.5c23.6,0,47.2,0,70.8,0
			c0.8,0,1.7,0.2,2.4-0.1c0.6-0.2,1.4-1,1.4-1.5c0-0.5-0.8-1.2-1.4-1.6c-0.5-0.3-1.3-0.1-1.9-0.1c-47.6,0-95.3,0-142.9,0
			c-1.4,0-3.6-0.6-3.6,1.7c0.1,2.1,2.1,1.5,3.5,1.5C255.1,386.5,278.9,386.5,302.8,386.5z M299.1,589c17.2,0,34.3,0,51.5,0
			c1.5,0,3.8,0.7,3.9-1.7c0-2.4-2.3-1.8-3.8-1.8c-34.4,0-68.8,0-103.2,0c-1.5,0-3.8-0.7-3.7,1.9c0,2.3,2.2,1.7,3.6,1.7
			C264.6,589,281.8,589,299.1,589z M286,404.7c-17.4,0-34.8,0-52.2,0c-1.4,0-3.4-0.5-3.3,1.7c0.1,2.1,1.9,1.8,3.4,1.8
			c0.2,0,0.3,0,0.5,0c34.3,0,68.6,0,102.9,0c0.5,0,1,0,1.5,0c1.3-0.1,2.8-0.3,2.4-2c-0.2-0.7-1.6-1.2-2.5-1.6c-0.5-0.2-1.1,0-1.7,0
			C320,404.7,303,404.7,286,404.7z M276.6,317.6c15.1,0,30.2,0,45.3,0c2.7,0,5.4,0.1,8.1-0.1c0.7,0,1.4-0.9,2-1.5
			c-0.6-0.6-1.2-1.3-1.9-1.8c-0.4-0.3-1.1-0.1-1.7-0.1c-34.5,0-69.1,0-103.6,0c-0.8,0-1.7-0.1-2.4,0.2c-0.6,0.3-1.1,1.2-1.2,1.8
			c0,0.4,0.9,1,1.4,1.3c0.6,0.2,1.3,0.1,1.9,0.1C241.9,317.6,259.2,317.6,276.6,317.6z M296.9,495.2c-17.2,0-34.5,0-51.7,0
			c-0.6,0-1.3-0.2-1.7,0.1c-0.7,0.4-1.3,1.1-1.9,1.7c0.6,0.5,1.1,1.2,1.8,1.6c0.4,0.2,1.1,0.1,1.7,0.1c34.6,0,69.3,0,103.9,0
			c0.6,0,1.3,0.2,1.7-0.1c0.7-0.4,1.2-1.1,1.8-1.6c-0.6-0.6-1.1-1.3-1.8-1.7c-0.5-0.3-1.3-0.1-1.9-0.1
			C331.5,495.2,314.2,495.2,296.9,495.2z"/>
		<path class="st2" d="M476.4,287.7c10.8,6.8,22.3,11.1,34.9,12.7c-2.4,6.6-4.6,12.9-6.9,19.3c-9.5,26.3-19.1,52.7-28.6,79
			c-16.8,46.4-33.6,92.8-50.4,139.2c-6.3,17.5-12.7,35.1-19,52.6c-0.5,1.4-1.2,2.3-2.8,2.1c-11-1.4-21.1-5.2-30.6-10.8
			c-1.9-1.1-2.4-2.3-1.5-4.5c19.8-54.5,39.5-109,59.3-163.5c14.9-41,29.7-82.1,44.5-123.1C475.6,289.6,476,288.7,476.4,287.7z"/>
		<path class="st3" d="M493.8,239.8c10.7,6.8,22.2,11,34.8,12.6c-2.7,7.6-5.4,15-8.1,22.4c-2.4,6.5-4.8,13-7.1,19.5
			c-0.6,1.9-1.5,2.3-3.4,2.2c-6.9-0.5-13.4-2.7-19.7-5.4c-4-1.7-7.8-4-11.6-6.2c-0.6-0.3-1-1.7-0.8-2.3c5-14.2,10.2-28.3,15.3-42.4
			C493.5,240.1,493.7,240,493.8,239.8z"/>
		<path class="st4" d="M370.9,585.2c5.1,2.2,10,4.7,15.1,6.5c5.1,1.8,10.4,3.1,15.7,4.7c-0.3,0.3-0.7,0.9-1.2,1.5
			c-6.6,7-13.2,13.9-19.6,20.9c-1.1,1.2-2.1,1.6-3.5,0.9c-0.2-0.1-0.4-0.2-0.7-0.3c-4.4-1.6-3.8-0.6-4.1-5.5
			C372.1,604.2,371.5,594.7,370.9,585.2z"/>
		<path class="st5" d="M529,248.6c-12-1.1-23.1-5.1-33-12C508,237.9,519.1,241.6,529,248.6z"/>
		<path class="st6" d="M204.2,281.9c3.8-4.2,7.5-8.4,11.3-12.6c1.5-1.6,3.3-2.2,5.3-1.6c1.9,0.6,3.4,2,3.3,4.1
			c0,1.5-0.6,3.2-1.6,4.4c-5.6,6.7-11.5,13.2-17.2,19.7c-1.2,1.3-2.3,2.6-3.5,4c-6,6.8-12,13.5-18,20.3c-3,3.4-5.3,3.6-8.8,0.8
			c-4.2-3.4-8.5-6.8-12.7-10.2c-1.2-1-2.3-1.9-3.5-2.9c-2.4-2-4.8-3.9-7.2-5.9c-2.6-2.3-3.1-5.2-1.2-7.5c1.8-2.3,4.3-2.4,7.4-0.3
			c0.1,0.1,0.3,0.2,0.4,0.2c1.2,1,2.4,2.1,3.6,3.1c5.5,4.5,11.1,9,16.7,13.6c2.1-2.4,4.1-4.6,6-6.8c5.5-6.3,11.1-12.7,16.6-19
			C202.2,284.2,203.2,283.1,204.2,281.9z"/>
		<path class="st7" d="M267.2,237.1c-35.2,0-70.4,0-105.7,0c-0.9,0-1.9,0.1-2.6-0.3c-0.5-0.2-1.1-1.1-1.1-1.6c0-0.5,0.7-1.2,1.3-1.5
			c0.6-0.3,1.4-0.2,2.2-0.2c70.7,0,141.4,0,212.1,0c0.4,0,0.9-0.1,1.2,0c0.9,0.5,1.6,1.2,2.4,1.9c-0.8,0.6-1.5,1.2-2.4,1.6
			c-0.5,0.2-1.3,0-1.9,0C337.5,237.1,302.4,237.1,267.2,237.1z"/>
		<path class="st8" d="M203.9,509.4c-6.9,0-13.7-0.1-20.6,0c-2,0-2.8-0.5-3-2.7c-1.3-13.5-2.8-27.1-4.3-40.6
			c-0.3-2.9,0.2-3.5,3.1-3.5c13.6,0,27.1,0,40.7,0c2.2,0,3,0.8,3.2,3c1,10.4,2.2,20.7,3.3,31.1c0.4,3.5,0.6,7,0.9,10.5
			c0.2,1.9-0.9,2.4-2.6,2.3C217.8,509.3,210.9,509.4,203.9,509.4z M223.8,505.9c-1.4-13.4-2.8-26.6-4.1-39.6c-13.6,0-26.7,0-40,0
			c1.4,13.3,2.7,26.4,4.1,39.6C197.2,505.9,210.3,505.9,223.8,505.9z"/>
		<path class="st9" d="M204,600c-6.7,0-13.4,0-20.1,0c-2.9,0-3.3-0.6-3.2-3.5c0.6-13.3,1.1-26.6,1.6-39.9c0.1-3.4,0.3-3.6,3.6-3.6
			c13.4,0,26.8,0,40.2,0c2.9,0,3.3,0.3,3.2,3.3c-0.6,13.8-1.3,27.5-1.9,41.3c-0.1,2.2-1.5,2.4-3.2,2.4C217.6,600,210.8,600,204,600z
			 M224.4,596.4c0.6-13.3,1.2-26.6,1.8-39.8c-13.7,0-27,0-40.1,0c-0.6,13.3-1.1,26.5-1.7,39.8C197.6,596.4,210.7,596.4,224.4,596.4z
			"/>
		<path class="st9" d="M187.7,372.1c6.8,0,13.6,0.1,20.3,0c2.3,0,3.1,0.9,3.3,3.1c1.1,9.7,2.4,19.4,3.7,29c0.5,4,1.1,8.1,1.6,12.1
			c0.2,1.9-0.6,2.8-2.4,2.8c-14,0-27.9,0-41.9,0c-1.6,0-2.4-0.8-2.6-2.3c-1.2-9-2.3-18.1-3.5-27.1c-0.6-4.7-1.1-9.4-1.8-14
			c-0.4-2.9,0.1-3.6,3-3.6C174.2,372.1,180.9,372.1,187.7,372.1z M167.9,375.6c1.7,13.6,3.5,26.8,5.2,40c13.5,0,26.7,0,40,0
			c-1.7-13.4-3.4-26.7-5.1-40C194.5,375.6,181.4,375.6,167.9,375.6z"/>
		<path class="st10" d="M314.4,473.6c23.8,0,47.5,0,71.3,0c0.7,0,1.4-0.2,1.9,0.1c0.6,0.3,1.5,0.9,1.6,1.4c0,0.6-0.6,1.4-1.2,1.8
			c-0.6,0.3-1.4,0.2-2.2,0.2c-47.6,0-95.2,0-142.9,0c-0.2,0-0.3,0-0.5,0c-1.4,0-3.1,0.1-3.1-1.8c0-1.9,1.7-1.6,3-1.6
			C266.3,473.6,290.4,473.6,314.4,473.6z"/>
		<path class="st10" d="M295.4,296.1c-23.8,0-47.5,0-71.3,0c-0.7,0-1.4,0.2-1.9-0.1c-0.7-0.3-1.2-1.1-1.8-1.6
			c0.6-0.6,1.1-1.3,1.8-1.7c0.5-0.3,1.3-0.1,1.9-0.1c47.5,0,95.1,0,142.6,0c0.1,0,0.2,0,0.2,0c1.4,0.1,3.4-0.4,3.4,1.7
			c0,2.2-2,1.7-3.4,1.7C343.1,296.1,319.3,296.1,295.4,296.1z"/>
		<path class="st11" d="M265.7,248c23.6,0,47.2,0,70.8,0c0.7,0,1.4-0.2,1.9,0.1c0.7,0.3,1.2,1.1,1.8,1.6c-0.6,0.6-1.1,1.3-1.8,1.7
			c-0.4,0.3-1.1,0.1-1.7,0.1c-47.4,0-94.7,0-142.1,0c-0.5,0-1.1,0.2-1.4,0c-0.7-0.5-1.3-1.2-1.9-1.8c0.6-0.5,1.2-1.2,1.9-1.5
			c0.5-0.2,1.3-0.1,1.9-0.1C218.7,248,242.2,248,265.7,248z"/>
		<path class="st12" d="M302.8,386.5c-23.9,0-47.7,0-71.6,0c-1.4,0-3.5,0.5-3.5-1.5c-0.1-2.3,2.1-1.7,3.6-1.7c47.6,0,95.3,0,142.9,0
			c0.7,0,1.4-0.2,1.9,0.1c0.6,0.3,1.4,1,1.4,1.6c0,0.5-0.8,1.3-1.4,1.5c-0.7,0.3-1.6,0.1-2.4,0.1C350,386.5,326.4,386.5,302.8,386.5
			z"/>
		<path class="st13" d="M299.1,589c-17.2,0-34.5,0-51.7,0c-1.4,0-3.6,0.7-3.6-1.7c-0.1-2.5,2.2-1.9,3.7-1.9c34.4,0,68.8,0,103.2,0
			c1.5,0,3.8-0.6,3.8,1.8c0,2.4-2.4,1.7-3.9,1.7C333.4,589,316.2,589,299.1,589z"/>
		<path class="st7" d="M286,404.7c17,0,34,0,51,0c0.6,0,1.2-0.2,1.7,0c0.9,0.4,2.3,0.9,2.5,1.6c0.4,1.7-1.1,1.9-2.4,2
			c-0.5,0-1,0-1.5,0c-34.3,0-68.6,0-102.9,0c-0.2,0-0.3,0-0.5,0c-1.4-0.1-3.3,0.3-3.4-1.8c-0.1-2.3,2-1.7,3.3-1.7
			C251.2,404.7,268.6,404.7,286,404.7z"/>
		<path class="st13" d="M276.6,317.6c-17.3,0-34.6,0-51.9,0c-0.7,0-1.4,0.2-1.9-0.1c-0.6-0.2-1.5-0.9-1.4-1.3c0-0.6,0.6-1.5,1.2-1.8
			c0.7-0.3,1.6-0.2,2.4-0.2c34.5,0,69.1,0,103.6,0c0.6,0,1.3-0.2,1.7,0.1c0.7,0.4,1.3,1.2,1.9,1.8c-0.7,0.5-1.3,1.4-2,1.5
			c-2.7,0.2-5.4,0.1-8.1,0.1C306.8,317.6,291.7,317.6,276.6,317.6z"/>
		<path class="st14" d="M296.9,495.2c17.3,0,34.6,0,51.9,0c0.7,0,1.4-0.2,1.9,0.1c0.7,0.4,1.2,1.1,1.8,1.7c-0.6,0.6-1.1,1.2-1.8,1.6
			c-0.4,0.2-1.1,0.1-1.7,0.1c-34.6,0-69.3,0-103.9,0c-0.6,0-1.2,0.2-1.7-0.1c-0.7-0.4-1.2-1-1.8-1.6c0.6-0.6,1.2-1.3,1.9-1.7
			c0.4-0.3,1.1-0.1,1.7-0.1C262.4,495.2,279.6,495.2,296.9,495.2z"/>
		<path class="st15" d="M158.9,307.8c1.2,1,2.3,1.9,3.5,2.9c0.2,4.8,0.5,9.7,0.7,14.4c13.6,0,26.7,0,40,0
			c-0.4-8.5-0.8-16.9-1.2-25.3c1.2-1.3,2.3-2.6,3.5-4c0.4,10,0.8,20,1.2,30c0.1,1.9-0.7,2.7-2.5,2.7c-13.9,0-27.7,0-41.6,0
			c-1.7,0-2.6-0.5-2.7-2.5C159.6,320,159.2,313.9,158.9,307.8z"/>
		<path class="st16" d="M204.2,281.9c-1,1.1-2,2.3-3,3.4c-13.1,0-26.2,0-39.3,0c0,4.2,0,8.1,0,12.1c-1.2-1-2.4-2.1-3.6-3.1
			c0-3.4,0.1-6.8,0-10.3c0-1.5,0.6-2.3,2.1-2.3C175.1,281.9,189.6,281.9,204.2,281.9z"/>
		<path class="st17" d="M161.9,297.5c0-4,0-8,0-12.1c13.1,0,26.2,0,39.3,0c-5.5,6.3-11,12.7-16.6,19c-1.9,2.2-3.9,4.4-6,6.8
			C173,306.5,167.5,302,161.9,297.5z"/>
		<path class="st18" d="M201.9,299.9c0.4,8.4,0.8,16.7,1.2,25.3c-13.3,0-26.4,0-40,0c-0.2-4.8-0.5-9.6-0.7-14.4
			c4.3,3.4,8.5,6.8,12.8,10.2c3.5,2.8,5.8,2.6,8.8-0.8C189.9,313.4,195.9,306.7,201.9,299.9z"/>
		<path class="st1" d="M223.8,505.9c-13.5,0-26.6,0-40,0c-1.4-13.2-2.7-26.3-4.1-39.6c13.3,0,26.4,0,40,0
			C221.1,479.3,222.4,492.5,223.8,505.9z"/>
		<path class="st4" d="M224.4,596.4c-13.7,0-26.8,0-40,0c0.6-13.3,1.1-26.4,1.7-39.8c13.1,0,26.3,0,40.1,0
			C225.6,569.8,225,583,224.4,596.4z"/>
		<path class="st1" d="M167.9,375.6c13.5,0,26.6,0,40,0c1.7,13.3,3.4,26.6,5.1,40c-13.3,0-26.4,0-40,0
			C171.3,402.4,169.6,389.1,167.9,375.6z"/>
	</g>
</g>
</svg>
