<svg xmlns="http://www.w3.org/2000/svg" viewBox="0 0 442.4 467.25"><defs><style>.cls-1{fill:#230876;}.cls-2{fill:#f8ecdf;}.cls-3{fill:#4674da;}.cls-4{fill:#da354d;}.cls-5{fill:#f6eade;}.cls-6{fill:#d5334e;}.cls-7{fill:#d8364f;}.cls-8{fill:#240875;}.cls-9{fill:#230775;}.cls-10{fill:#220775;}.cls-11{fill:#1e0273;}.cls-12{fill:#200474;}.cls-13{fill:#1c0072;}.cls-14{fill:#240976;}.cls-15{fill:#200574;}.cls-16{fill:#1f0473;}.cls-17{fill:#1e0272;}.cls-18{fill:#f7ebdf;}.cls-19{fill:#f2e5dc;}</style></defs><g id="Camada_2" data-name="Camada 2"><g id="Camada_1-2" data-name="Camada 1"><path class="cls-1" d="M354.15,176l7.52-20.76Q381,101.85,400.36,48.46c1-2.84,2.58-3.64,5.91-3.32A68.76,68.76,0,0,1,428,51.26a93.92,93.92,0,0,1,11.95,6.5c2.86,1.83,2.93,3,1.75,6.22Q403.87,168.49,366.1,273a15.72,15.72,0,0,0-.47,6.43c1.05,12.18,2.62,24.33,3.31,36.53,1.1,19.22,2.18,38.48,2.25,57.73.06,14.74-1.08,29.52-2.35,44.23a353.16,353.16,0,0,1-7.78,46.88c-.41,1.83-1.29,2.44-3.2,2.44q-171.73-.08-343.46,0c-2.84,0-3.32-.59-2.68-3.35A399.39,399.39,0,0,0,19.5,417.2a471.93,471.93,0,0,0,2.18-65.32c-.49-15.82-1.54-31.63-2.89-47.4-1.38-16-3.38-31.93-5.21-47.87-1.61-14-3.4-28-5-42s-3.42-27.83-4.72-41.78-2.46-28.13-3-42.22C.15,114.57-.2,98.47.12,82.39a355.54,355.54,0,0,1,2.8-38.3c1.8-14,4.76-27.86,7.23-41.78A2.5,2.5,0,0,1,13.05,0c.57,0,1.14,0,1.72,0H355.28c.74,0,1.47,0,2.21,0,1.81.07,2.46,1.06,2.1,2.78-1.35,6.43-2.93,12.82-4,19.3-1.45,8.66-2.63,17.37-3.73,26.08a382.11,382.11,0,0,0-2.64,49.35c.05,12,.54,24,1,36,.34,8.07,1,16.12,1.61,24.17.47,6.08,1.11,12.13,1.67,18.2ZM355.68,3.52H16.83a5.22,5.22,0,0,0-1.94,0c-.69.3-1.67.87-1.78,1.46C10.89,16.93,8.44,28.8,6.75,40.77c-1.38,9.84-2.18,19.79-2.6,29.71-.6,13.78-1,27.6-.75,41.39s1.32,27.71,2.26,41.55c.66,9.76,1.59,19.5,2.59,29.24,1,9.4,2.15,18.78,3.27,28.16q2,16.74,4.05,33.48c1.43,11.89,3,23.77,4.25,35.67C21,291,22,302,22.86,313.09c.93,12.45,1.91,24.91,2.23,37.39.59,22.53.53,45.08-2.28,67.51-1.37,10.89-3.1,21.74-4.79,32.59-.69,4.38-1.72,8.7-2.63,13.26h2.44q168.8,0,337.58,0c1.85,0,2.52-.54,2.83-2.32,1.46-8.16,3.32-16.25,4.53-24.44,1.51-10.23,2.77-20.5,3.69-30.8.75-8.53,1.19-17.12,1.15-25.68q-.12-24.37-1-48.73c-.35-9.86-1.27-19.7-2.06-29.54-.51-6.3-1.27-12.57-2-19.45-.46,1.06-.7,1.55-.89,2.06q-21.36,59-42.78,118a17.35,17.35,0,0,1-3.47,5.71Q299.42,426,283.19,443a10.82,10.82,0,0,1-2.58,1.54c-.45-.78-1.24-1.55-1.29-2.36-1-15.07-1.94-30.14-2.93-45.2a22,22,0,0,1,1.46-10.5c1-2.21,1.68-4.52,2.61-7.06h-2.95q-60.06,0-120.13,0c-1.33,0-3.63.95-3.67-1.5s2.27-1.8,3.75-1.8q60.81,0,121.6,0c2,0,2.93-.58,3.63-2.53q33.72-93.37,67.52-186.71a10.83,10.83,0,0,0,.57-4.52c-.91-10.8-2.19-21.58-2.86-32.4-1-15.32-1.82-30.65-2.14-46a363.13,363.13,0,0,1,2.15-50.86c1.27-10.66,2.78-21.29,4.39-31.91C353.2,15.36,354.51,9.6,355.68,3.52Zm29.79,96.41c-.42,1-.83,1.89-1.16,2.8Q362,164.29,339.78,225.87q-29.59,81.78-59.27,163.53c-.83,2.28-.37,3.39,1.53,4.53a77.67,77.67,0,0,0,30.63,10.82c1.63.2,2.28-.66,2.78-2.05q9.46-26.32,19-52.62,25.2-69.6,50.42-139.19,14.31-39.51,28.64-79c2.3-6.34,4.55-12.69,6.9-19.26A83.71,83.71,0,0,1,385.47,99.93ZM402.93,52c-.18.2-.35.3-.4.44-5.13,14.13-10.27,28.27-15.31,42.44a2.54,2.54,0,0,0,.83,2.3,120.5,120.5,0,0,0,11.6,6.18c6.26,2.73,12.73,4.9,19.65,5.42,1.81.13,2.72-.33,3.35-2.2,2.23-6.54,4.71-13,7.06-19.49,2.68-7.41,5.33-14.82,8.07-22.45A84.18,84.18,0,0,1,402.93,52ZM280,397.4c.57,9.5,1.2,19,1.71,28.55.26,4.93-.31,3.93,4.07,5.52a5.72,5.72,0,0,1,.66.32c1.43.71,2.41.34,3.53-.87,6.49-7,13.09-13.92,19.65-20.87.51-.54.93-1.16,1.2-1.49-5.38-1.57-10.66-2.83-15.74-4.67S285.12,399.64,280,397.4ZM438.11,60.81a68,68,0,0,0-33-12A67.79,67.79,0,0,0,438.11,60.81Z"/><path class="cls-2" d="M355.68,3.52c-1.17,6.08-2.48,11.84-3.36,17.67-1.61,10.62-3.12,21.25-4.39,31.91A363.13,363.13,0,0,0,345.78,104c.32,15.34,1.18,30.67,2.14,46,.67,10.82,1.95,21.6,2.86,32.4a10.83,10.83,0,0,1-.57,4.52q-33.73,93.36-67.52,186.71c-.7,1.95-1.59,2.53-3.63,2.53q-60.8-.09-121.6,0c-1.48,0-3.8-.71-3.75,1.8s2.34,1.5,3.67,1.5q60.06.08,120.13,0h2.95c-.93,2.54-1.64,4.85-2.61,7.06a22,22,0,0,0-1.46,10.5c1,15.06,1.9,30.13,2.93,45.2.05.81.84,1.58,1.29,2.36a10.82,10.82,0,0,0,2.58-1.54q16.19-17.08,32.24-34.28A17.35,17.35,0,0,0,318.9,403q21.47-59,42.78-118c.19-.51.43-1,.89-2.06.71,6.88,1.47,13.15,2,19.45.79,9.84,1.71,19.68,2.06,29.54q.86,24.36,1,48.73c0,8.56-.4,17.15-1.15,25.68-.92,10.3-2.18,20.57-3.69,30.8-1.21,8.19-3.07,16.28-4.53,24.44-.31,1.78-1,2.33-2.83,2.32q-168.78-.08-337.58,0H15.39c.91-4.56,1.94-8.88,2.63-13.26,1.69-10.85,3.42-21.7,4.79-32.59,2.81-22.43,2.87-45,2.28-67.51-.32-12.48-1.3-24.94-2.23-37.39C22,302,21,291,19.82,280c-1.28-11.9-2.82-23.78-4.25-35.67q-2-16.74-4.05-33.48c-1.12-9.38-2.31-18.76-3.27-28.16-1-9.74-1.93-19.48-2.59-29.24-.94-13.84-2-27.69-2.26-41.55s.15-27.61.75-41.39c.42-9.92,1.22-19.87,2.6-29.71C8.44,28.8,10.89,16.93,13.11,5c.11-.59,1.09-1.16,1.78-1.46a5.22,5.22,0,0,1,1.94,0H355.68Zm-288.3,103c-.14-.08-.3-.14-.43-.23-3-2-5.56-1.92-7.36.34s-1.41,5.22,1.22,7.48c2.35,2,4.78,3.92,7.17,5.88.31,6.1.7,12.2.87,18.31.06,2,1,2.51,2.7,2.5q20.79,0,41.59,0c1.85,0,2.63-.72,2.54-2.65-.46-10-.84-20-1.25-30,5.76-6.57,11.58-13.09,17.22-19.75A7.58,7.58,0,0,0,133.23,84,4.2,4.2,0,0,0,129.9,80a4.89,4.89,0,0,0-5.31,1.6q-5.64,6.3-11.3,12.57Q91.44,94.06,69.57,94c-1.58,0-2.15.76-2.14,2.27C67.45,99.7,67.4,103.12,67.38,106.54ZM176.3,49.33H281.72a5.22,5.22,0,0,0,1.94,0,15.61,15.61,0,0,0,2.39-1.64c-.8-.63-1.57-1.31-2.42-1.86-.29-.18-.8,0-1.2,0H70.36a5.55,5.55,0,0,0-2.17.2,2.19,2.19,0,0,0-1.25,1.46A2.09,2.09,0,0,0,68,49a6.92,6.92,0,0,0,2.63.28ZM113,321.56c6.94,0,13.88,0,20.82,0,1.7,0,2.71-.49,2.55-2.35-.29-3.49-.57-7-.94-10.46-1.09-10.37-2.25-20.73-3.29-31.1-.21-2.14-1.09-3-3.24-2.95-13.56,0-27.11,0-40.67,0-2.92,0-3.39.66-3.08,3.54,1.46,13.52,2.94,27,4.26,40.57.21,2.18,1,2.75,3,2.73C99.31,321.51,106.17,321.56,113,321.56Zm.09,90.65h20.33c1.66,0,3.06-.19,3.16-2.42.6-13.77,1.29-27.54,1.9-41.31.13-3-.26-3.26-3.18-3.26H95.15c-3.34,0-3.51.26-3.64,3.63q-.77,19.92-1.65,39.85c-.13,2.89.27,3.5,3.17,3.51C99.73,412.22,106.43,412.21,113.12,412.21ZM96.81,184.32c-6.78,0-13.56,0-20.33,0-2.88,0-3.37.72-3,3.59.66,4.67,1.18,9.36,1.78,14q1.74,13.56,3.5,27.1a2.33,2.33,0,0,0,2.63,2.27q20.94,0,41.88,0c1.89,0,2.69-.91,2.44-2.76-.53-4-1.08-8.06-1.6-12.1-1.26-9.68-2.57-19.35-3.7-29-.26-2.25-1-3.16-3.32-3.13C110.36,184.38,103.58,184.32,96.81,184.32ZM223.45,285.76h-72c-1.27,0-3-.33-3,1.58s1.68,1.85,3.09,1.84H294.87A4.77,4.77,0,0,0,297,289a2.48,2.48,0,0,0,1.23-1.77c0-.52-.92-1.14-1.56-1.42a5.44,5.44,0,0,0-1.94-.05ZM204.5,108.24q35.77,0,71.55,0c1.4,0,3.4.49,3.37-1.7s-2-1.64-3.42-1.71H133.14a4.56,4.56,0,0,0-1.93.07,8.89,8.89,0,0,0-1.79,1.69,9.25,9.25,0,0,0,1.84,1.61,4.76,4.76,0,0,0,1.93,0Zm-29.69-48H104.24a5,5,0,0,0-1.93,0,9.44,9.44,0,0,0-1.91,1.53,15.44,15.44,0,0,0,1.94,1.78c.34.23,1,0,1.44,0H245.9c.57,0,1.26.2,1.69-.06a10.25,10.25,0,0,0,1.76-1.67,8.7,8.7,0,0,0-1.79-1.61c-.52-.27-1.28-.06-1.93-.06Zm37.05,138.46h70.83a7.17,7.17,0,0,0,2.42-.11c.62-.24,1.42-1,1.42-1.52s-.77-1.24-1.37-1.56a4.55,4.55,0,0,0-1.93-.11q-71.46,0-142.9,0c-1.42,0-3.63-.61-3.57,1.73.06,2.06,2.15,1.54,3.53,1.54Q176.07,198.67,211.86,198.66Zm-3.72,202.56q25.73,0,51.46,0c1.48,0,3.82.68,3.86-1.73s-2.27-1.8-3.79-1.81q-51.59,0-103.16,0c-1.48,0-3.77-.67-3.72,1.86.05,2.32,2.25,1.67,3.65,1.67Q182.28,401.25,208.14,401.22Zm-13-184.33q-26.1,0-52.2,0c-1.35,0-3.38-.5-3.32,1.75.06,2.06,1.95,1.75,3.39,1.81H246.39c.49,0,1,0,1.47,0,1.26-.1,2.76-.3,2.38-2-.16-.69-1.56-1.17-2.46-1.57a4.58,4.58,0,0,0-1.7,0Zm-9.47-87.06H231c2.69,0,5.4.1,8.08-.07.7,0,1.35-.95,2-1.46a11.2,11.2,0,0,0-1.87-1.78c-.42-.26-1.12-.06-1.69-.06H133.88a5.56,5.56,0,0,0-2.4.21,2.52,2.52,0,0,0-1.16,1.83c0,.41.85,1,1.45,1.27a5.43,5.43,0,0,0,1.94.06ZM206,307.35H154.26c-.57,0-1.26-.2-1.69,0a12.4,12.4,0,0,0-1.91,1.73,10.36,10.36,0,0,0,1.83,1.57c.44.24,1.12.06,1.69.06H258.06c.57,0,1.25.18,1.69-.06a10.68,10.68,0,0,0,1.84-1.61,8.7,8.7,0,0,0-1.76-1.68c-.51-.27-1.28-.06-1.93-.06Z"/><path class="cls-3" d="M385.47,99.93a83.71,83.71,0,0,0,34.94,12.69c-2.35,6.57-4.6,12.92-6.9,19.26q-14.31,39.51-28.64,79-25.22,69.58-50.42,139.19-9.52,26.3-19,52.62c-.5,1.39-1.15,2.25-2.78,2.05A77.67,77.67,0,0,1,282,393.93c-1.9-1.14-2.36-2.25-1.53-4.53q29.73-81.73,59.27-163.53,22.28-61.58,44.53-123.14C384.64,101.82,385.05,100.93,385.47,99.93Z"/><path class="cls-4" d="M402.93,52a84.18,84.18,0,0,0,34.85,12.64c-2.74,7.63-5.39,15-8.07,22.45-2.35,6.5-4.83,13-7.06,19.49-.63,1.87-1.54,2.33-3.35,2.2-6.92-.52-13.39-2.69-19.65-5.42a120.5,120.5,0,0,1-11.6-6.18,2.54,2.54,0,0,1-.83-2.3c5-14.17,10.18-28.31,15.31-42.44C402.58,52.34,402.75,52.24,402.93,52Z"/><path class="cls-5" d="M280,397.4c5.14,2.24,10,4.65,15.08,6.49s10.36,3.1,15.74,4.67c-.27.33-.69.95-1.2,1.49C303,417,296.44,423.9,290,430.92c-1.12,1.21-2.1,1.58-3.53.87a5.72,5.72,0,0,0-.66-.32c-4.38-1.59-3.81-.59-4.07-5.52C281.18,416.42,280.55,406.9,280,397.4Z"/><path class="cls-6" d="M438.11,60.81a67.79,67.79,0,0,1-33-12A68,68,0,0,1,438.11,60.81Z"/><path class="cls-7" d="M113.29,94.12q5.65-6.28,11.3-12.57A4.89,4.89,0,0,1,129.9,80,4.2,4.2,0,0,1,133.23,84a7.58,7.58,0,0,1-1.58,4.36c-5.64,6.66-11.46,13.18-17.22,19.75l-3.46,4q-9,10.14-18,20.27c-3,3.41-5.28,3.61-8.76.8-4.23-3.44-8.49-6.83-12.75-10.24L68,120c-2.39-2-4.82-3.87-7.17-5.88-2.63-2.26-3.06-5.17-1.22-7.48s4.34-2.38,7.36-.34c.13.09.29.15.43.23,1.21,1,2.42,2.08,3.63,3.12l16.72,13.62c2.12-2.39,4.09-4.56,6-6.77q8.3-9.48,16.58-19Z"/><path class="cls-8" d="M176.3,49.33H70.63A6.92,6.92,0,0,1,68,49a2.09,2.09,0,0,1-1.06-1.63A2.19,2.19,0,0,1,68.19,46a5.55,5.55,0,0,1,2.17-.2H282.43c.4,0,.91-.15,1.2,0,.85.55,1.62,1.23,2.42,1.86a15.61,15.61,0,0,1-2.39,1.64,5.22,5.22,0,0,1-1.94,0Z"/><path class="cls-9" d="M113,321.56c-6.86,0-13.72-.05-20.58,0-2,0-2.8-.55-3-2.73-1.32-13.53-2.8-27.05-4.26-40.57-.31-2.88.16-3.53,3.08-3.54,13.56,0,27.11,0,40.67,0,2.15,0,3,.81,3.24,2.95,1,10.37,2.2,20.73,3.29,31.1.37,3.48.65,7,.94,10.46.16,1.86-.85,2.36-2.55,2.35C126.91,321.53,120,321.56,113,321.56Zm19.87-3.46c-1.39-13.44-2.76-26.6-4.11-39.64H88.84c1.36,13.29,2.71,26.44,4.06,39.64Z"/><path class="cls-10" d="M113.12,412.21c-6.69,0-13.39,0-20.09,0-2.9,0-3.3-.62-3.17-3.51q.9-19.92,1.65-39.85c.13-3.37.3-3.63,3.64-3.63h40.18c2.92,0,3.31.3,3.18,3.26-.61,13.77-1.3,27.54-1.9,41.31-.1,2.23-1.5,2.42-3.16,2.42Zm20.37-3.66c.6-13.35,1.19-26.56,1.78-39.76H95.22c-.57,13.33-1.13,26.5-1.69,39.76Z"/><path class="cls-10" d="M96.81,184.32c6.77,0,13.55.06,20.32,0,2.3,0,3.06.88,3.32,3.13,1.13,9.69,2.44,19.36,3.7,29,.52,4,1.07,8.07,1.6,12.1.25,1.85-.55,2.76-2.44,2.76q-20.94,0-41.88,0a2.33,2.33,0,0,1-2.63-2.27Q77,215.52,75.3,202c-.6-4.68-1.12-9.37-1.78-14-.41-2.87.08-3.58,3-3.59C83.25,184.31,90,184.32,96.81,184.32ZM77,187.78l5.16,40h40c-1.73-13.41-3.43-26.69-5.14-40Z"/><path class="cls-11" d="M223.45,285.76h71.31a5.44,5.44,0,0,1,1.94.05c.64.28,1.53.9,1.56,1.42A2.48,2.48,0,0,1,297,289a4.77,4.77,0,0,1-2.16.17H151.52c-1.41,0-3.09.1-3.09-1.84s1.71-1.58,3-1.58Z"/><path class="cls-11" d="M204.5,108.24H133.19a4.76,4.76,0,0,1-1.93,0,9.25,9.25,0,0,1-1.84-1.61,8.89,8.89,0,0,1,1.79-1.69,4.56,4.56,0,0,1,1.93-.07H276c1.41.07,3.39-.42,3.42,1.71s-2,1.7-3.37,1.7Q240.27,108.26,204.5,108.24Z"/><path class="cls-12" d="M174.81,60.2h70.82c.65,0,1.41-.21,1.93.06a8.7,8.7,0,0,1,1.79,1.61,10.25,10.25,0,0,1-1.76,1.67c-.43.26-1.12.06-1.69.06H103.78c-.49,0-1.1.19-1.44,0a15.44,15.44,0,0,1-1.94-1.78,9.44,9.44,0,0,1,1.91-1.53,5,5,0,0,1,1.93,0Z"/><path class="cls-13" d="M211.86,198.66q-35.79,0-71.57,0c-1.38,0-3.47.52-3.53-1.54-.06-2.34,2.15-1.73,3.57-1.73q71.44,0,142.9,0a4.55,4.55,0,0,1,1.93.11c.6.32,1.38,1,1.37,1.56s-.8,1.28-1.42,1.52a7.17,7.17,0,0,1-2.42.11Z"/><path class="cls-14" d="M208.14,401.22q-25.84,0-51.7,0c-1.4,0-3.6.65-3.65-1.67,0-2.53,2.24-1.86,3.72-1.86q51.57,0,103.16,0c1.52,0,3.82-.58,3.79,1.81s-2.38,1.73-3.86,1.73Q233.86,401.25,208.14,401.22Z"/><path class="cls-8" d="M195.11,216.89h51a4.58,4.58,0,0,1,1.7,0c.9.4,2.3.88,2.46,1.57.38,1.66-1.12,1.86-2.38,2-.49,0-1,0-1.47,0H143c-1.44-.06-3.33.25-3.39-1.81-.06-2.25,2-1.75,3.32-1.75Q169,216.87,195.11,216.89Z"/><path class="cls-14" d="M185.64,129.83H133.71a5.43,5.43,0,0,1-1.94-.06c-.6-.23-1.47-.86-1.45-1.27a2.52,2.52,0,0,1,1.16-1.83,5.56,5.56,0,0,1,2.4-.21H237.5c.57,0,1.27-.2,1.69.06a11.2,11.2,0,0,1,1.87,1.78c-.67.51-1.32,1.41-2,1.46-2.68.17-5.39.07-8.08.07Z"/><path class="cls-15" d="M206,307.35H257.9c.65,0,1.42-.21,1.93.06a8.7,8.7,0,0,1,1.76,1.68,10.68,10.68,0,0,1-1.84,1.61c-.44.24-1.12.06-1.69.06H154.18c-.57,0-1.25.18-1.69-.06a10.36,10.36,0,0,1-1.83-1.57,12.4,12.4,0,0,1,1.91-1.73c.43-.25,1.12,0,1.69,0Z"/><path class="cls-16" d="M68,120l3.5,2.91c.24,4.83.47,9.65.7,14.42h40c-.41-8.51-.8-16.88-1.2-25.25l3.46-4c.41,10,.79,20,1.25,30,.09,1.93-.69,2.66-2.54,2.65q-20.79,0-41.59,0c-1.74,0-2.64-.48-2.7-2.5C68.68,132.21,68.29,126.11,68,120Z"/><path class="cls-17" d="M113.29,94.12q-1.47,1.71-3,3.41H71v12.13c-1.21-1-2.42-2.09-3.63-3.12,0-3.42.07-6.84.05-10.26,0-1.51.56-2.27,2.14-2.27Q91.43,94.09,113.29,94.12Z"/><path class="cls-18" d="M71,109.66V97.53h39.32q-8.28,9.5-16.58,19c-1.93,2.21-3.9,4.38-6,6.77Z"/><path class="cls-19" d="M111,112.09c.4,8.37.79,16.74,1.2,25.25h-40c-.23-4.77-.46-9.59-.7-14.42,4.26,3.41,8.52,6.8,12.75,10.24,3.48,2.81,5.76,2.61,8.76-.8Q102,122.21,111,112.09Z"/><path class="cls-2" d="M132.9,318.1h-40c-1.35-13.2-2.7-26.35-4.06-39.64h39.95C130.14,291.5,131.51,304.66,132.9,318.1Z"/><path class="cls-5" d="M133.49,408.55h-40c.56-13.26,1.12-26.43,1.69-39.76h40.05C134.68,382,134.09,395.2,133.49,408.55Z"/><path class="cls-2" d="M77,187.78h40c1.71,13.31,3.41,26.59,5.14,40h-40Z"/></g></g></svg>